# xmcd
#
# Track frame offsets: 
#        150
#        23948
#        41910
#        58276
#        75599
#        101580
#        119184
#        138819
#        158513
#        179050
#        202574
#        222509
#
# Disc length: 3248 seconds
#
# Revision: 1
# Processed by: cddbd v1.5.2PL0 Copyright (c) Steve Scherf et al.
# Submitted via: ExactAudioCopy v0.95b3
#
DISCID=ab0cae0c
DTITLE=Luxury Soul - cd 3
DYEAR=2007
DGENRE=Soul
TTITLE0=Steve Harvey and Pretty Terry - Shake It Off
TTITLE1=Marva King - Trippin
TTITLE2=Otis and Shugg - Fantasy
TTITLE3=A.J. - Rhythm and Grace
TTITLE4=T.C. Carson - All You Need
TTITLE5=2 Way - Everything You Need
TTITLE6=Peggi Blu - Can't go Back (remix)
TTITLE7=General Johnson and Chairman of the Board - Gone Fishin
TTITLE8=Brenda Hillman - Paper Boat
TTITLE9=Charles and Gwen Scales - Something New
TTITLE10=Denise Stewart - Let Me Know
TTITLE11=Jiva - The Goodbye Song
EXTD=
EXTT0=
EXTT1=
EXTT2=
EXTT3=
EXTT4=
EXTT5=
EXTT6=
EXTT7=
EXTT8=
EXTT9=
EXTT10=
EXTT11=
PLAYORDER=
